<svg width="860" height="523" viewBox="0 0 860 523" fill="none" xmlns="http://www.w3.org/2000/svg">
<g clip-path="url(#clip0)">
<path d="M859.08 522.353H0V520.172H859.476L859.08 522.353Z" fill="#3F3D56"/>
<path d="M750.147 175.401L728.408 218.438L663.407 247.989C656.465 259.72 634.407 260.618 632.803 253.032C631.004 244.521 659.589 230.823 659.589 230.823L713.957 194.049L718.714 162.392L750.147 175.401Z" fill="#A0616A"/>
<path d="M747.582 464.215L751.591 496.288L728.338 497.892L725.933 464.215H747.582Z" fill="#A0616A"/>
<path d="M744.375 491.478C746.454 489.279 748.371 486.934 750.113 484.461C753.445 479.849 756.402 503.505 756.402 503.505C756.402 503.505 759.61 513.127 758.808 517.938C758.006 522.749 739.564 522.749 736.357 521.947C733.15 521.145 717.113 521.947 717.113 521.947H693.058C672.211 512.325 693.058 505.91 693.058 505.91C699.473 505.109 721.122 485.063 721.122 485.063L725.933 476.243C729.14 475.441 732.348 487.468 732.348 487.468L744.375 491.478Z" fill="#2F2E41"/>
<path d="M807.718 464.616L811.728 496.689L788.475 498.293L786.069 464.616H807.718Z" fill="#A0616A"/>
<path d="M804.511 491.878C806.589 489.68 808.507 487.335 810.249 484.861C813.581 480.25 816.538 503.906 816.538 503.906C816.538 503.906 819.745 512.726 818.944 517.537C818.142 522.348 799.7 522.348 796.493 521.546C793.285 520.744 777.249 522.348 777.249 522.348H753.194C732.347 512.726 753.194 506.311 753.194 506.311C759.609 505.509 781.258 485.464 781.258 485.464L786.069 476.644C789.276 475.842 792.483 487.869 792.483 487.869L804.511 491.878Z" fill="#2F2E41"/>
<path d="M781.258 257.747C784.465 261.756 782.862 275.387 782.862 275.387C782.862 275.387 788.475 319.487 786.069 323.496C783.664 327.505 787.673 330.712 790.078 336.325C792.484 341.938 794.889 355.569 794.889 355.569C808.52 366.794 807.718 418.111 807.718 418.111L812.529 463.815C810.926 468.626 788.475 469.428 785.267 468.626C782.06 467.824 772.438 395.66 772.438 395.66L750.789 354.767C750.789 354.767 752.393 463.815 752.393 468.626C752.393 473.437 730.743 471.031 725.932 471.031C721.122 471.031 721.122 390.849 721.122 390.849L716.311 370.002L690.652 274.585V263.359L694.661 257.747C694.661 257.747 778.051 253.738 781.258 257.747Z" fill="#2F2E41"/>
<path d="M745.979 75.7332C759.706 75.7332 770.835 64.6046 770.835 50.8767C770.835 37.1489 759.706 26.0203 745.979 26.0203C732.251 26.0203 721.122 37.1489 721.122 50.8767C721.122 64.6046 732.251 75.7332 745.979 75.7332Z" fill="#A0616A"/>
<path d="M733.549 62.5032C738.588 73.7227 735.605 89.3934 725.531 106.603L766.424 87.3597L760.01 81.747L761.613 65.7105L733.549 62.5032Z" fill="#A0616A"/>
<path d="M733.55 88.1615C728.195 91.3451 724.992 97.1944 723.153 103.147C719.749 114.167 717.699 125.56 717.051 137.076L715.108 171.551L691.054 262.959C711.901 280.599 723.928 276.59 751.992 262.157C780.056 247.724 783.263 266.968 783.263 266.968C783.263 266.968 785.669 266.166 783.263 263.76C780.858 261.355 783.263 263.76 785.669 261.355C788.074 258.949 785.669 261.355 784.867 258.949C784.065 256.544 784.867 258.148 785.669 257.346C786.47 256.544 782.461 249.327 782.461 249.327L788.876 189.191L796.894 104.198C787.272 92.1705 760.01 81.7468 760.01 81.7468L735.154 99.3868C727.136 102.594 733.55 89.765 733.55 89.765V88.1615Z" fill="#EA501F"/>
<path d="M810.124 155.113L813.331 203.223L772.438 261.756C772.438 275.387 765.222 278.594 765.222 278.594C762.489 274.232 760.077 269.676 758.006 264.963C753.997 256.143 760.411 248.927 760.411 248.927L788.475 189.592L776.448 159.924L810.124 155.113Z" fill="#A0616A"/>
<path d="M796.492 104.599C810.123 109.41 812.529 161.528 812.529 161.528C796.493 152.708 777.249 167.141 777.249 167.141C777.249 167.141 773.24 153.51 768.429 135.87C766.976 130.908 766.802 125.659 767.924 120.612C769.046 115.565 771.426 110.884 774.843 107.004C774.843 107.004 782.861 99.7878 796.492 104.599Z" fill="#EA501F"/>
<path d="M768.83 58.494C765.666 55.9625 761.349 60.564 761.349 60.564L758.817 37.7807C758.817 37.7807 742.996 39.6794 732.87 37.1479C722.744 34.6164 721.162 46.3244 721.162 46.3244C720.64 41.5963 720.534 36.8315 720.845 32.0849C721.478 26.3891 729.705 20.6932 744.261 16.896C758.817 13.0988 766.412 29.5534 766.412 29.5534C776.538 34.6164 771.994 61.0255 768.83 58.494Z" fill="#2F2E41"/>
<path d="M40.4028 393.062C43.1357 403.911 66.4384 428.308 90.4834 451.217C53.4039 359.63 74.5332 259.396 74.5332 259.396C67.6484 298.763 162.007 496.866 162.007 496.866L140.515 509.539L133.255 519.756C60.476 486.33 40.4028 393.062 40.4028 393.062Z" fill="#E6E6E6"/>
<path d="M667.458 189.972H363.487V249.987H667.458V189.972Z" fill="#E6E6E6"/>
<path d="M667.458 95.1421H363.487V155.157H667.458V95.1421Z" fill="#E6E6E6"/>
<path d="M667.458 0H363.487V60.0147H667.458V0Z" fill="#E6E6E6"/>
<path d="M369.968 53.5344H660.979V6.48022H369.968V53.5344Z" fill="white"/>
<path d="M369.968 148.886H660.979V101.832H369.968V148.886Z" fill="white"/>
<path d="M369.968 243.507H660.979V196.452H369.968V243.507Z" fill="white"/>
<path d="M395.443 47.5441C405.344 47.5441 413.37 39.5181 413.37 29.6176C413.37 19.7171 405.344 11.6912 395.443 11.6912C385.543 11.6912 377.517 19.7171 377.517 29.6176C377.517 39.5181 385.543 47.5441 395.443 47.5441Z" fill="#10459B"/>
<path d="M615.237 22.6029H438.311V26.5H615.237V22.6029Z" fill="#10459B"/>
<path d="M615.237 32.7354H438.311V36.6324H615.237V32.7354Z" fill="#10459B"/>
<path d="M395.443 143.466C405.344 143.466 413.37 135.44 413.37 125.539C413.37 115.639 405.344 107.613 395.443 107.613C385.543 107.613 377.517 115.639 377.517 125.539C377.517 135.44 385.543 143.466 395.443 143.466Z" fill="#CCCCCC"/>
<path d="M615.237 118.525H438.311V122.422H615.237V118.525Z" fill="#CCCCCC"/>
<path d="M615.237 128.657H438.311V132.554H615.237V128.657Z" fill="#CCCCCC"/>
<path d="M395.443 238.296C405.344 238.296 413.37 230.27 413.37 220.369C413.37 210.469 405.344 202.443 395.443 202.443C385.543 202.443 377.517 210.469 377.517 220.369C377.517 230.27 385.543 238.296 395.443 238.296Z" fill="#CCCCCC"/>
<path d="M615.237 213.354H438.311V217.252H615.237V213.354Z" fill="#CCCCCC"/>
<path d="M615.237 223.487H438.311V227.384H615.237V223.487Z" fill="#CCCCCC"/>
<path d="M139.379 173.118C139.379 173.118 135.188 199.462 152.551 197.067C152.551 197.067 221.406 181.5 224.999 185.093C228.591 188.685 250.925 189.908 249.76 174.763C248.591 159.566 226.196 168.328 226.196 168.328C226.196 168.328 191.469 173.118 184.284 169.525C177.1 165.933 156.742 167.13 156.742 167.13L139.379 173.118Z" fill="#A0616A"/>
<path d="M191.923 259.03L182.376 349.617C182.376 349.617 179.382 385.541 170.401 393.325C170.401 393.325 170.401 404.701 167.407 408.293L163.216 455.594C163.216 455.594 169.204 472.957 168.605 475.951C168.006 478.945 171 488.524 170.401 489.722C169.802 490.919 141.662 489.722 141.662 489.722L147.649 393.325L166.21 259.207L191.923 259.03Z" fill="#2F2E41"/>
<path d="M139.468 484.825C139.468 484.825 126.911 516.49 133.463 520.311C140.014 524.133 208.803 521.403 208.803 521.403C208.803 521.403 220.268 514.306 207.165 509.392C207.165 509.392 196.246 508.846 189.149 504.479C182.052 500.111 173.863 491.922 173.863 491.922C173.863 491.922 173.317 479.911 168.949 482.641C167.643 483.502 166.53 484.627 165.684 485.943C164.838 487.259 164.276 488.738 164.036 490.284L139.468 484.825Z" fill="#2F2E41"/>
<path d="M120.107 480.531C120.107 480.531 106.336 515.258 113.521 519.45C120.706 523.641 196.147 520.647 196.147 520.647C196.147 520.647 208.721 512.863 194.351 507.475C194.351 507.475 182.376 506.876 174.592 502.086C166.809 497.296 157.828 488.315 157.828 488.315C157.828 488.315 157.229 475.143 152.439 478.136C151.006 479.081 149.786 480.314 148.858 481.758C147.93 483.201 147.314 484.823 147.05 486.519L120.107 480.531Z" fill="#2F2E41"/>
<path d="M175.79 257.8C175.79 257.8 169.204 319.47 166.21 332.642C164.328 341.317 163.127 350.125 162.618 358.987C162.618 358.987 162.019 378.147 156.63 383.535C155.054 385.096 153.815 386.965 152.991 389.025C152.167 391.085 151.775 393.293 151.84 395.51C151.84 395.51 146.452 455.983 149.445 463.168C152.439 470.353 156.503 479.687 153.509 484.477C150.516 489.267 116.515 485.92 116.515 482.328C116.515 478.735 116.515 475.741 114.718 473.945C112.922 472.149 114.718 460.773 114.718 460.773C114.718 460.773 107.533 407.485 114.12 391.918C120.706 376.351 123.699 333.84 123.699 333.84C123.699 333.84 118.91 285.342 112.922 277.558C106.935 269.775 114.12 242.233 114.12 242.233L175.79 257.8Z" fill="#2F2E41"/>
<path d="M158.933 66.2871C159.629 67.8727 161.295 68.7556 162.812 69.5912C171.603 74.4342 178.961 81.4556 186.211 88.3962C184.402 82.2659 184.787 75.6967 187.301 69.8201C188.166 67.8156 189.301 65.661 188.682 63.5672C188.072 62.0705 187.01 60.8009 185.646 59.9346C182.688 57.6468 179.596 55.5374 176.387 53.6174C174.145 52.2762 169.536 48.7057 166.963 49.0942C166.828 52.5702 166.757 55.6779 165.235 58.9266C164.874 59.6972 159.199 66.8933 158.933 66.2871Z" fill="#A0616A"/>
<path d="M189.561 73.9865C203.119 73.9865 214.109 62.9958 214.109 49.4381C214.109 35.8805 203.119 24.8898 189.561 24.8898C176.003 24.8898 165.013 35.8805 165.013 49.4381C165.013 62.9958 176.003 73.9865 189.561 73.9865Z" fill="#A0616A"/>
<path d="M190.758 107.516C190.758 107.516 194.949 86.56 182.975 79.3751C171 72.1902 157.229 63.8078 157.229 63.8078C157.229 63.8078 153.038 63.2091 151.241 72.1903C151.241 72.1903 117.113 78.7764 113.521 111.108C109.928 143.44 115.916 190.741 115.916 190.741C115.916 190.741 110.527 232.054 103.941 254.207C103.941 254.207 98.5522 258.997 122.502 251.812C146.452 244.628 188.363 272.17 188.363 272.17C188.363 272.17 192.554 267.978 192.554 264.985C192.554 261.991 201.536 170.982 203.332 162.6C205.128 154.218 196.147 108.713 190.758 107.516Z" fill="#D0CDE1"/>
<path d="M183.776 51.9671C185.25 51.1497 186.904 50.7093 188.59 50.6849C190.278 50.6596 191.926 50.1685 193.353 49.2658C195.672 47.4856 195.842 44.0451 197.538 41.6642C199.994 38.2172 204.894 37.8023 209.123 37.9748C211.709 38.0803 214.495 38.2348 216.673 36.8358C218.909 35.3996 219.922 32.6936 220.676 30.1452C221.568 27.1316 222.145 23.4463 219.935 21.2112C218.401 19.6592 215.979 19.3522 214.275 17.9892C213.353 17.2515 201.159 14.2893 189.713 11.6258C184.014 10.3019 178.028 11.1118 172.886 13.9024C167.745 16.693 163.804 21.2708 161.808 26.7703C159.165 34.038 156.9 40.8669 157.134 42.342C158.253 49.4013 164.496 55.0127 164.926 62.1472C165.336 60.1771 166.229 58.3396 167.524 56.7995C168.819 55.2594 170.476 54.0649 172.347 53.323C172.816 53.0937 173.349 53.029 173.859 53.1396C174.479 53.3379 174.842 53.9575 175.233 54.4779C176.259 55.8414 179.481 57.9101 181.307 56.9429C182.941 56.0773 181.721 53.3605 183.776 51.9671Z" fill="#3F3D56"/>
<path d="M195.001 181.031C194.487 181.534 194.193 182.221 194.183 182.94C194.172 183.66 194.446 184.354 194.945 184.873L212.207 202.739C212.458 202.999 212.759 203.206 213.09 203.349C213.422 203.492 213.779 203.567 214.14 203.57C214.502 203.574 214.86 203.505 215.195 203.369C215.529 203.233 215.833 203.031 216.089 202.777L268.763 150.331C269.051 150.044 269.271 149.697 269.407 149.314C269.544 148.932 269.593 148.524 269.551 148.12C269.509 147.716 269.378 147.326 269.166 146.98C268.954 146.633 268.668 146.338 268.328 146.117L247.615 132.626C247.097 132.285 246.478 132.132 245.861 132.193C245.244 132.254 244.666 132.524 244.225 132.96L195.001 181.031Z" fill="#3F3D56"/>
<path d="M269.124 146.913C269.02 147.074 268.899 147.223 268.763 147.358L216.213 200.795C215.957 201.05 215.653 201.251 215.318 201.388C214.984 201.524 214.625 201.592 214.264 201.589C213.903 201.585 213.546 201.51 213.214 201.367C212.882 201.225 212.582 201.017 212.331 200.758L194.697 182.148C194.577 182.024 194.469 181.887 194.375 181.742C194.081 182.246 193.977 182.839 194.081 183.413C194.186 183.987 194.492 184.505 194.945 184.873L212.207 202.739C212.458 202.999 212.758 203.206 213.09 203.349C213.422 203.492 213.779 203.567 214.14 203.57C214.501 203.574 214.86 203.505 215.194 203.369C215.529 203.233 215.833 203.031 216.089 202.777L268.763 150.331C269.206 149.889 269.484 149.308 269.55 148.686C269.616 148.064 269.465 147.438 269.124 146.913H269.124Z" fill="#10459B"/>
<path d="M264.247 147.56L262.104 146.193C262.329 146.595 262.412 147.062 262.339 147.518C262.265 147.973 262.04 148.391 261.699 148.701C261.358 149.012 260.922 149.199 260.462 149.23C260.002 149.262 259.544 149.136 259.164 148.875L245.293 139.338C244.978 139.122 244.73 138.821 244.577 138.471C244.424 138.12 244.373 137.734 244.429 137.355C244.486 136.977 244.647 136.622 244.895 136.331C245.143 136.04 245.468 135.825 245.833 135.709L244.729 135.005C244.585 134.914 244.415 134.874 244.246 134.893C244.077 134.912 243.92 134.989 243.8 135.11L197.137 180.967C197.068 181.037 197.013 181.121 196.976 181.213C196.939 181.305 196.921 181.403 196.923 181.502C196.925 181.601 196.946 181.699 196.986 181.79C197.026 181.88 197.084 181.962 197.156 182.03L214.103 198.543C214.244 198.675 214.43 198.748 214.623 198.745C214.816 198.742 215.001 198.665 215.137 198.528L264.372 148.713C264.451 148.634 264.511 148.539 264.548 148.434C264.585 148.329 264.598 148.217 264.586 148.106C264.574 147.996 264.538 147.889 264.479 147.794C264.42 147.7 264.341 147.62 264.247 147.56V147.56Z" fill="white"/>
<path d="M210.391 170.841L224.706 184.338L258.754 150.698L241.474 139.451L210.391 170.841Z" fill="#E6E6E6"/>
<path d="M257.431 159C257.525 159.09 257.651 159.14 257.781 159.14C257.912 159.14 258.037 159.09 258.132 159L261.109 156.023C261.202 155.93 261.254 155.804 261.254 155.672C261.254 155.541 261.202 155.415 261.109 155.322C261.015 155.232 260.889 155.182 260.759 155.182C260.628 155.182 260.503 155.232 260.408 155.322L257.431 158.299C257.338 158.392 257.286 158.518 257.286 158.65C257.286 158.781 257.338 158.907 257.431 159V159Z" fill="#3F3D56"/>
<path d="M252.415 164.016C252.508 164.109 252.634 164.161 252.766 164.161C252.897 164.161 253.023 164.109 253.116 164.016L256.094 161.038C256.186 160.945 256.238 160.82 256.237 160.688C256.237 160.557 256.185 160.432 256.092 160.339C256 160.246 255.874 160.194 255.743 160.194C255.612 160.194 255.486 160.245 255.393 160.338L252.415 163.315C252.323 163.408 252.271 163.534 252.271 163.666C252.271 163.797 252.323 163.923 252.415 164.016V164.016Z" fill="#3F3D56"/>
<path d="M210.722 185.77C212.569 185.77 214.066 184.273 214.066 182.426C214.066 180.579 212.569 179.082 210.722 179.082C208.875 179.082 207.378 180.579 207.378 182.426C207.378 184.273 208.875 185.77 210.722 185.77Z" fill="#10459B"/>
<path d="M121.903 163.798C121.903 163.798 117.712 190.142 135.076 187.747C135.076 187.747 203.931 172.18 207.523 175.772C211.116 179.365 233.45 180.588 232.284 165.442C231.115 150.246 208.721 159.008 208.721 159.008C208.721 159.008 173.994 163.798 166.809 160.205C159.624 156.613 139.267 157.81 139.267 157.81L121.903 163.798Z" fill="#A0616A"/>
<path d="M146.452 80.5726C146.452 80.5726 119.508 83.5663 119.508 122.484V172.18L152.439 158.409C152.439 158.409 166.21 126.077 165.013 117.096C163.815 108.115 164.414 81.7701 146.452 80.5726Z" fill="#D0CDE1"/>
</g>
<defs>
<clipPath id="clip0">
<rect width="859.476" height="522.353" fill="white"/>
</clipPath>
</defs>
</svg>
