<svg width="48" height="48" viewBox="0 0 48 48" fill="none" xmlns="http://www.w3.org/2000/svg">
<path d="M8.66747 15.6049H16.4028C16.6391 13.0021 17.3684 10.6648 18.4162 8.85818C19.8031 6.46978 21.7754 5 24.0046 5C26.2338 5 28.1958 6.47999 29.5929 8.85818C30.6407 10.6546 31.3701 13.0021 31.6064 15.6049H39.3314C40.2457 15.6049 41.0675 16.35 40.9956 17.2584L39.4444 38.7642C39.2493 41.4588 37.544 43 35.0683 43H12.9409C10.1878 43 8.72911 41.0913 8.56475 38.7642L7.0033 17.2686C6.94166 16.3602 7.7532 15.6049 8.66747 15.6049ZM18.3341 15.6049H29.6546C29.4286 13.3492 28.8019 11.3486 27.9082 9.81762C26.8809 8.03143 25.4839 6.91888 24.0046 6.91888C22.515 6.91888 21.1282 8.03143 20.0804 9.82783C19.1867 11.3486 18.5703 13.3594 18.3341 15.6049Z" fill="#EA501F"/>
<path d="M18.3456 35.5979C17.984 35.3484 17.891 34.8596 18.139 34.4957C18.387 34.1317 18.8726 34.0381 19.2343 34.2877C19.4616 34.4437 19.6993 34.5996 19.9576 34.7556C21.7762 35.8683 23.4502 36.4194 24.8452 36.4194C26.1058 36.4194 27.1288 35.9411 27.7798 34.974C27.8211 34.9012 27.8624 34.8596 27.8728 34.8284C28.0587 34.5269 28.1931 34.2045 28.2861 33.8925C28.4721 33.2478 28.4411 32.5823 28.1827 31.9792C27.9038 31.3449 27.3664 30.7314 26.5294 30.2218C25.9715 29.8787 25.2791 29.5771 24.4422 29.3483C22.3135 28.7452 20.7429 27.8925 19.8956 26.7487C18.9656 25.4905 18.8933 23.9723 19.8853 22.1317C20.5466 20.9151 21.9002 20.156 23.6155 20.0208C25.0931 19.9064 26.8704 20.26 28.6787 21.1854C29.0714 21.383 29.2264 21.8613 29.0197 22.2565C28.8131 22.6516 28.3481 22.8076 27.9554 22.5996C26.4158 21.8093 24.9485 21.5078 23.7292 21.6014C22.5615 21.695 21.6729 22.1525 21.2802 22.8804C20.6189 24.097 20.6292 25.0537 21.1666 25.7816C21.7866 26.6239 23.0782 27.279 24.8762 27.7886C25.8475 28.0693 26.6741 28.4229 27.3561 28.8388C28.4824 29.5251 29.2367 30.3882 29.6397 31.3241C30.053 32.2912 30.1047 33.3102 29.8257 34.3085C29.7017 34.7556 29.5054 35.2028 29.2367 35.6395C29.1747 35.7331 29.1334 35.8059 29.1024 35.8579C28.1414 37.2825 26.6638 37.9896 24.8658 38C23.1815 38 21.2182 37.3761 19.1516 36.1074C18.8933 35.9619 18.6246 35.7955 18.3456 35.5979Z" fill="white"/>
</svg>
