<svg width="20" height="20" viewBox="0 0 20 20" fill="none" xmlns="http://www.w3.org/2000/svg">
<g clip-path="url(#clip0)">
<path fill-rule="evenodd" clip-rule="evenodd" d="M7.88152 7.87516V7.09507C7.61079 7.05673 7.33776 7.03683 7.06433 7.03552C3.72045 7.03552 1 9.75643 1 13.1003C1 15.1515 2.02515 16.9673 3.58899 18.0653C2.54187 16.9455 1.95972 15.4694 1.96056 13.9363C1.96056 10.64 4.6036 7.95211 7.88152 7.87516" fill="#00F2EA"/>
<path fill-rule="evenodd" clip-rule="evenodd" d="M8.02428 16.7057C9.51619 16.7057 10.7333 15.5188 10.7887 14.0397L10.7937 0.83597H13.2059C13.1544 0.560285 13.1283 0.280453 13.128 0H9.83363L9.82814 13.2042C9.77317 14.6828 8.55563 15.8692 7.06417 15.8692C6.61639 15.8694 6.17534 15.7603 5.7793 15.5513C6.03502 15.9081 6.37201 16.1989 6.76239 16.3996C7.15276 16.6003 7.58532 16.7052 8.02428 16.7057V16.7057ZM17.7119 5.31768V4.58386C16.8254 4.58469 15.958 4.32679 15.2159 3.8418C15.8665 4.59087 16.7425 5.10874 17.7124 5.31768" fill="#00F2EA"/>
<path fill-rule="evenodd" clip-rule="evenodd" d="M15.2159 3.84134C14.4887 3.00924 14.0881 1.94152 14.0886 0.836426H13.2059C13.3202 1.44723 13.5572 2.02849 13.9027 2.545C14.2482 3.06151 14.695 3.50252 15.2159 3.84134V3.84134ZM7.06414 10.3303C6.3299 10.3311 5.62596 10.6232 5.10677 11.1424C4.58758 11.6616 4.29553 12.3655 4.29468 13.0998C4.29517 13.6048 4.43368 14.1002 4.69525 14.5323C4.95683 14.9644 5.33151 15.3167 5.77881 15.5513C5.43823 15.0816 5.25482 14.5163 5.25478 13.9362C5.25551 13.2019 5.54751 12.4978 6.06672 11.9785C6.58592 11.4592 7.28992 11.1671 8.02425 11.1663C8.30962 11.1663 8.58309 11.2134 8.84144 11.2945V7.93094C8.5707 7.8926 8.29768 7.8727 8.02425 7.8714C7.97615 7.8714 7.92897 7.87414 7.88133 7.87506V10.4585C7.61706 10.3744 7.34148 10.3312 7.06414 10.3303" fill="#FF004F"/>
<path fill-rule="evenodd" clip-rule="evenodd" d="M17.7122 5.31766V7.87824C16.0036 7.87824 14.421 7.33177 13.1283 6.40419V13.0997C13.1283 16.4436 10.4083 19.1641 7.06445 19.1641C5.77225 19.1641 4.57395 18.7564 3.58911 18.0647C4.15533 18.6753 4.84155 19.1624 5.60479 19.4954C6.36803 19.8284 7.19183 20.0002 8.02456 20C11.3684 20 14.0889 17.2796 14.0889 13.9362V7.24062C15.4243 8.20086 17.028 8.71657 18.6728 8.71467V5.41935C18.3429 5.41935 18.0223 5.38362 17.7122 5.3172" fill="#FF004F"/>
<path fill-rule="evenodd" clip-rule="evenodd" d="M13.1283 13.0998V6.40421C14.4637 7.36457 16.0674 7.88029 17.7122 7.87827V5.31768C16.7424 5.10852 15.8666 4.59049 15.2162 3.84134C14.6953 3.50252 14.2485 3.06151 13.9031 2.545C13.5576 2.02849 13.3205 1.44723 13.2062 0.836426H10.794L10.789 14.0402C10.7336 15.5188 9.51648 16.7056 8.02456 16.7056C7.58561 16.7052 7.15307 16.6003 6.7627 16.3995C6.37233 16.1988 6.03534 15.9081 5.77959 15.5513C5.3322 15.3168 4.95742 14.9644 4.69577 14.5324C4.43411 14.1003 4.29553 13.6049 4.295 13.0998C4.29584 12.3655 4.5879 11.6616 5.10709 11.1424C5.62628 10.6232 6.33021 10.3311 7.06446 10.3303C7.34938 10.3303 7.62284 10.377 7.88165 10.4586V7.87506C4.60373 7.95202 1.96069 10.6399 1.96069 13.9362C1.96069 15.5303 2.58 16.9814 3.58912 18.0652C4.60641 18.7813 5.82037 19.1652 7.06446 19.1641C10.4083 19.1641 13.1283 16.4436 13.1283 13.0998" fill="white"/>
</g>
<defs>
<clipPath id="clip0">
<rect width="20" height="20" fill="white"/>
</clipPath>
</defs>
</svg>
