<svg width="32" height="32" viewBox="0 0 32 32" fill="none" xmlns="http://www.w3.org/2000/svg">
<path fill-rule="evenodd" clip-rule="evenodd" d="M13.8058 12.9278V11.8294C13.4246 11.7754 13.0402 11.7474 12.6552 11.7455C7.94691 11.7455 4.11646 15.5766 4.11646 20.2849C4.11646 23.173 5.55989 25.7297 7.7618 27.2757C6.28743 25.699 5.46776 23.6206 5.46895 21.462C5.46895 16.8208 9.1904 13.0361 13.8058 12.9278" fill="#00F2EA"/>
<path fill-rule="evenodd" clip-rule="evenodd" d="M14.0072 25.3614C16.1078 25.3614 17.8215 23.6903 17.8995 21.6077L17.9066 3.01654H21.303C21.2305 2.62837 21.1938 2.23436 21.1934 1.83948H16.5548L16.547 20.4313C16.4696 22.5132 14.7553 24.1837 12.6553 24.1837C12.0248 24.1839 11.4038 24.0303 10.8462 23.7361C11.2063 24.2384 11.6807 24.6478 12.2304 24.9305C12.7801 25.2131 13.3891 25.3608 14.0072 25.3614V25.3614ZM27.6476 9.32689V8.29365C26.3994 8.29481 25.178 7.93169 24.1331 7.24881C25.0492 8.30352 26.2826 9.03269 27.6482 9.32689" fill="#00F2EA"/>
<path fill-rule="evenodd" clip-rule="evenodd" d="M24.1331 7.24813C23.1092 6.07652 22.5452 4.57315 22.5459 3.01715H21.303C21.4639 3.87718 21.7977 4.6956 22.2842 5.42286C22.7707 6.15011 23.3997 6.77107 24.1331 7.24813V7.24813ZM12.6553 16.3847C11.6215 16.3859 10.6303 16.7971 9.89931 17.5282C9.16827 18.2592 8.75705 19.2503 8.75586 20.2842C8.75655 20.9953 8.95158 21.6928 9.31988 22.3012C9.68818 22.9096 10.2157 23.4057 10.8455 23.736C10.366 23.0747 10.1078 22.2788 10.1077 21.4619C10.1087 20.4279 10.5199 19.4366 11.2509 18.7054C11.982 17.9743 12.9732 17.563 14.0072 17.5618C14.409 17.5618 14.794 17.6282 15.1578 17.7424V13.0064C14.7766 12.9524 14.3922 12.9244 14.0072 12.9225C13.9394 12.9225 13.873 12.9264 13.8059 12.9277V16.5653C13.4338 16.4469 13.0458 16.386 12.6553 16.3847" fill="#FF004F"/>
<path fill-rule="evenodd" clip-rule="evenodd" d="M27.6475 9.32688V12.9322C25.2418 12.9322 23.0135 12.1628 21.1934 10.8567V20.2842C21.1934 24.9925 17.3636 28.8229 12.6553 28.8229C10.8359 28.8229 9.14864 28.2489 7.76196 27.275C8.5592 28.1347 9.52543 28.8206 10.6001 29.2895C11.6747 29.7584 12.8347 30.0003 14.0072 30C18.7154 30 22.5459 26.1695 22.5459 21.4619V12.0344C24.4261 13.3865 26.6841 14.1126 29 14.1099V9.47006C28.5357 9.47006 28.0842 9.41975 27.6475 9.32623" fill="#FF004F"/>
<path fill-rule="evenodd" clip-rule="evenodd" d="M21.1933 20.2842V10.8567C23.0734 12.2089 25.3315 12.9351 27.6474 12.9322V9.32685C26.2819 9.03235 25.0488 8.30296 24.133 7.24813C23.3996 6.77107 22.7705 6.15011 22.2841 5.42286C21.7976 4.6956 21.4638 3.87718 21.3029 3.01715H17.9065L17.8994 21.6083C17.8214 23.6902 16.1077 25.3613 14.0071 25.3613C13.389 25.3607 12.78 25.213 12.2303 24.9304C11.6807 24.6477 11.2062 24.2383 10.8461 23.736C10.2161 23.4058 9.68845 22.9097 9.32003 22.3013C8.95162 21.6929 8.75649 20.9954 8.75574 20.2842C8.75693 19.2503 9.16815 18.2592 9.89919 17.5282C10.6302 16.7971 11.6214 16.3859 12.6552 16.3847C13.0564 16.3847 13.4414 16.4505 13.8058 16.5653V12.9277C9.19045 13.0361 5.46899 16.8207 5.46899 21.4619C5.46899 23.7064 6.34099 25.7496 7.76185 27.2756C9.19422 28.284 10.9035 28.8244 12.6552 28.8229C17.3635 28.8229 21.1933 24.9924 21.1933 20.2842" fill="white"/>
</svg>
