<svg width="48" height="48" viewBox="0 0 48 48" fill="none" xmlns="http://www.w3.org/2000/svg">
<g clip-path="url(#clip0)">
<path fill-rule="evenodd" clip-rule="evenodd" d="M24.3811 12.5616C26.3321 11.5893 28.7007 11.0584 30.8647 10.8739L33.3007 10.6616C35.9664 10.4325 38.635 10.5722 41.3036 10.5722H42.7696V12.0307C42.7696 18.5104 42.7696 24.9901 42.7696 31.4726V32.2158C42.7696 38.9051 37.2811 44.3761 30.5676 44.3761H5.97583V10.5722H7.43906C10.1132 10.5722 12.7706 10.3989 15.4448 10.6029L17.8779 10.7873C20.1905 10.9606 22.3068 11.5194 24.3811 12.5616V12.5616Z" fill="#4D4C4B"/>
<path fill-rule="evenodd" clip-rule="evenodd" d="M7.43896 12.0307V28.684V31.4726V32.2158V42.9175H18.1749H19.8596H30.5675C36.4737 42.9175 41.3035 38.1003 41.3035 32.2158V31.4726C41.3035 25.0292 41.3035 18.7451 41.3035 12.0307C38.7386 12.0307 36.028 11.9692 33.4267 12.1145L30.9908 12.3241C28.6081 12.6147 26.1974 13.1679 24.3726 14.2185C22.3992 13.0841 20.2492 12.5197 17.7657 12.2403L15.3326 12.0559C12.678 11.9329 9.95617 12.0307 7.43896 12.0307V12.0307Z" fill="#5FB74E"/>
<path fill-rule="evenodd" clip-rule="evenodd" d="M10.4775 42.9175H18.1749H19.8596H30.5675C33.1856 42.9175 35.5879 41.9703 37.4548 40.4083C35.2739 35.3593 30.2367 31.8246 24.3726 31.8246C17.575 31.8246 11.8931 36.5691 10.4775 42.9175Z" fill="#89C45F"/>
<path fill-rule="evenodd" clip-rule="evenodd" d="M24.3728 42.9175L30.6938 42.8225C33.2755 42.8225 35.6245 41.9172 37.455 40.4083C39.8124 38.4692 41.3036 35.5297 41.3036 32.2158V31.4726C41.3036 25.0292 41.3036 18.7451 41.3036 12.0307C38.7388 12.0307 36.0282 11.9693 33.4269 12.1146L30.991 12.3241C28.6083 12.6147 26.1976 13.168 24.3728 14.2186V42.9175Z" fill="#4A9E4B"/>
<path fill-rule="evenodd" clip-rule="evenodd" d="M24.3728 42.9175H30.6069C33.2251 42.9175 35.5881 41.9731 37.455 40.4083C35.2994 35.4152 30.1528 31.9029 24.3728 31.8246V42.9175Z" fill="#5FB74E"/>
<path fill-rule="evenodd" clip-rule="evenodd" d="M33.4269 11.1059C32.9616 6.5486 29.0989 3 24.4121 3C19.7224 3 15.8626 6.51786 15.3328 11.0472L17.7659 11.2344C18.1975 7.96245 20.9951 5.43372 24.4009 5.43372C27.8066 5.43372 30.6294 8.00436 30.991 11.3127L33.4269 11.1059Z" fill="#4D4C4B"/>
<path fill-rule="evenodd" clip-rule="evenodd" d="M28.3308 33.2469C27.2712 34.3645 26.2116 35.485 25.152 36.6027L24.3728 37.4269L23.5935 36.6027C22.5311 35.485 21.4715 34.3645 20.412 33.2469L19.8625 32.6657L20.2634 31.9755C21.1155 30.5142 22.7049 29.729 24.3728 29.729C26.0378 29.729 27.6272 30.5142 28.4793 31.9755L28.8802 32.6657L28.3308 33.2469V33.2469Z" fill="#4D4C4B"/>
<path fill-rule="evenodd" clip-rule="evenodd" d="M27.5514 32.5148C26.4919 33.6325 25.4323 34.7501 24.3727 35.8706C23.3131 34.7501 22.2507 33.6325 21.1912 32.5148C21.8611 31.3636 23.1169 30.7936 24.3727 30.7964C25.6257 30.7936 26.8815 31.3636 27.5514 32.5148Z" fill="#FDF8B4"/>
<path fill-rule="evenodd" clip-rule="evenodd" d="M27.5515 32.5148C26.492 33.6325 25.4324 34.7501 24.3728 35.8706V30.7964C25.6258 30.7936 26.8816 31.3636 27.5515 32.5148V32.5148Z" fill="#FCD066"/>
<path fill-rule="evenodd" clip-rule="evenodd" d="M16.4259 16.2416C21.1772 16.2416 25.0287 20.0836 25.0287 24.8169C25.0287 29.5502 21.1772 33.3922 16.4259 33.3922C11.6746 33.3922 7.82593 29.5502 7.82593 24.8169C7.82593 20.0836 11.6746 16.2416 16.4259 16.2416Z" fill="#4D4C4B"/>
<path fill-rule="evenodd" clip-rule="evenodd" d="M16.4259 17.7001C20.3671 17.7001 23.5655 20.8883 23.5655 24.8169C23.5655 28.7455 20.3671 31.9309 16.4259 31.9309C12.4819 31.9309 9.28638 28.7455 9.28638 24.8169C9.28638 20.8883 12.4819 17.7001 16.4259 17.7001V17.7001Z" fill="#EEEFEE"/>
<path fill-rule="evenodd" clip-rule="evenodd" d="M16.426 17.7001C19.6804 17.7001 22.4247 19.8712 23.2852 22.8386C22.4247 25.806 19.6804 27.9771 16.426 27.9771C13.1716 27.9771 10.4273 25.806 9.56958 22.8386C10.4273 19.8712 13.1716 17.7001 16.426 17.7001Z" fill="#FEFEFE"/>
<path fill-rule="evenodd" clip-rule="evenodd" d="M32.3166 16.2416C37.0679 16.2416 40.9194 20.0836 40.9194 24.8169C40.9194 29.5502 37.0679 33.3922 32.3166 33.3922C27.5682 33.3922 23.7139 29.553 23.7139 24.8169C23.7139 20.0836 27.5682 16.2416 32.3166 16.2416Z" fill="#4D4C4B"/>
<path fill-rule="evenodd" clip-rule="evenodd" d="M32.3169 17.7001C36.2609 17.7001 39.4565 20.8883 39.4565 24.8169C39.4565 28.7455 36.2609 31.9309 32.3169 31.9309C28.3757 31.9309 25.1802 28.7455 25.1802 24.8169C25.1802 20.8883 28.3757 17.7001 32.3169 17.7001V17.7001Z" fill="#EEEFEE"/>
<path fill-rule="evenodd" clip-rule="evenodd" d="M32.317 17.7001C35.5714 17.7001 38.3185 19.8712 39.1762 22.8386C38.3185 25.806 35.5714 27.9771 32.317 27.9771C29.0626 27.9771 26.3183 25.806 25.4578 22.8386C26.3183 19.8712 29.0626 17.7001 32.317 17.7001Z" fill="#FEFEFE"/>
<path fill-rule="evenodd" clip-rule="evenodd" d="M17.3228 20.391C19.868 20.391 21.9339 22.4475 21.9339 24.9846C21.9339 27.5245 19.868 29.581 17.3228 29.581C14.7748 29.581 12.7117 27.5245 12.7117 24.9846C12.7117 24.138 12.9443 23.3444 13.3424 22.6654C13.6731 23.4758 14.4692 24.0458 15.4027 24.0458C16.6276 24.0458 17.6227 23.0566 17.6227 21.8328C17.6227 21.2823 17.4237 20.7822 17.0901 20.3966C17.1686 20.391 17.2471 20.391 17.3228 20.391V20.391Z" fill="#4D4C4B"/>
<path fill-rule="evenodd" clip-rule="evenodd" d="M31.4197 20.391C33.9678 20.391 36.0309 22.4475 36.0309 24.9846C36.0309 27.5245 33.9678 29.581 31.4197 29.581C28.8745 29.581 26.8086 27.5245 26.8086 24.9846C26.8086 24.138 27.0384 23.3444 27.4393 22.6654C27.7701 23.4758 28.569 24.0458 29.4996 24.0458C30.7274 24.0458 31.7197 23.0566 31.7197 21.8328C31.7197 21.2823 31.5206 20.7822 31.1871 20.3966C31.2656 20.391 31.3412 20.391 31.4197 20.391Z" fill="#4D4C4B"/>
</g>
<defs>
<clipPath id="clip0">
<rect width="48" height="48" fill="white"/>
</clipPath>
</defs>
</svg>
